<?xml version="1.0" encoding="UTF-8"?>
<svg xmlns="http://www.w3.org/2000/svg" version="1.1" viewBox="0 0 96 96">
  <defs>
    <style>
      .cls-1 {
        fill: none;
        stroke: #706f6f;
        stroke-miterlimit: 10;
      }

      .cls-2 {
        fill: #c6c6c6;
      }

      .cls-3 {
        fill: #706f6f;
      }

      .cls-4 {
        fill: #878787;
      }

      .cls-5 {
        fill: #96b58a;
      }

      .cls-6 {
        fill: #a0a0a0;
        isolation: isolate;
        opacity: .6;
      }
    </style>
  </defs>
  <!-- Generator: Adobe Illustrator 28.6.0, SVG Export Plug-In . SVG Version: 1.2.0 Build 709)  -->
  <g>
    <g id="Ebene_1">
      <g id="Ebene_1-2" data-name="Ebene_1">
        <g id="Ebene_1-2">
          <rect class="cls-3" x="40.7" y="0" width="16.4" height="41.4"/>
          <rect class="cls-6" y="42.3" width="29.6" height="53.5"/>
          <rect class="cls-6" x="67.6" y="42.3" width="28.4" height="53.5"/>
          <rect class="cls-2" x="32.5" y="44.5" width="32.4" height="51.3"/>
          <rect class="cls-3" x="40.7" y="41.3" width="16.4" height="42.3"/>
          <path class="cls-5" d="M69.3,42.1s.5-3.1-1.7-5.7c2.5.7,3.9,5,3.9,5,0,0-1.7-3.4.3-4.7-.5,2,0,3.5.8,3.8.6-1.6,1.8-2.6,1.8-2.6l-.8,2.9s1.9-1.3,1.5-5.4c2,1,.5,5.4.5,5.4,0,0,.8-.5,1.7-3.3.9,2-.8,4.6-.8,4.6h-7.2Z"/>
          <path class="cls-4" d="M38.4,72.1c-.6,0-.9.8-.5,1.3s1.2,0,1.3-.4-.3-1.1-.8-.8"/>
          <path class="cls-4" d="M58.6,63.7c-.3.4-.3.9,0,1.4s.5.8.9,1c.2.2.5.3.8.4.6,0,1.3-.2,1.4-.8.2-.6-.2-1.3-.7-1.7s-1.2-.5-1.9-.6c-.3,0-.6,0-.7.3h.2"/>
          <path class="cls-4" d="M37.9,79.5c0-.5,0-.6-.3-.9s-1-.3-1.5-.2c-.2,0-.3,0-.4.3-.2.3,0,.6.4.8.2.2.5.3.8.4h.5c.2,0,.3-.2.3-.4,0,.2.3,0,.3,0"/>
          <path class="cls-4" d="M61.7,72.3c-.4.3-.2,1,.2,1.3s.9.3,1.4.3.6,0,.8-.2.4-.4.3-.7c0-.2-.2-.3-.3-.4-.4-.3-.8-.6-1.3-.7s-.8,0-1.1.4"/>
          <path class="cls-4" d="M44.3,94.3c-.6,0-.9.8-.5,1.3s1.2,0,1.3-.4-.3-1.1-.8-.8"/>
          <path class="cls-4" d="M32.9,85.9c-.3.4-.3.9,0,1.4s.5.8.9,1c.2.2.5.3.8.4.6,0,1.3-.2,1.4-.8.2-.6-.2-1.3-.7-1.7s-1.2-.5-1.9-.6c-.3,0-.6,0-.7.3h.2"/>
          <path class="cls-4" d="M49.2,86.8c0-.5,0-.6-.3-.9s-1-.3-1.5-.2c-.2,0-.3,0-.4.3-.2.3,0,.6.4.8.2.2.5.3.8.4h.5c.2,0,.3-.2.3-.4,0,.2.3,0,.3,0"/>
          <path class="cls-4" d="M38.4,94.2c-.4.3-.2,1,.2,1.3s.9.3,1.4.3.6,0,.8-.2.4-.4.3-.7c0-.2-.2-.3-.3-.4-.4-.3-.8-.6-1.3-.7s-.8,0-1.1.4"/>
          <path class="cls-4" d="M62.8,84.9c-.3.5.3,1.2.8,1.1s.8-.9.3-1.3-1.1-.3-1.1.3"/>
          <path class="cls-4" d="M51.5,91.4c.2.4.6.7,1.1.8s.9,0,1.4-.2c.3,0,.5-.3.7-.5.4-.5.5-1.2,0-1.7-.4-.5-1.2-.6-1.8-.3s-1.1.8-1.5,1.3c-.2.2-.4.5-.2.7h.2"/>
          <path class="cls-4" d="M61,80.5c-.4-.3-.5-.4-.9-.2s-.8.7-1,1.1v.5c.2.3.6.2.9,0,.3,0,.5-.3.8-.4.2,0,.3-.2.4-.4s0-.4-.2-.4c0,0,.3-.2,0-.3"/>
          <path class="cls-4" d="M60.3,95.2c0,.5.7.7,1.2.5s.8-.6,1-1,.3-.5.3-.8-.2-.6-.4-.6h-.5c-.5.2-.9.3-1.3.7s-.4.7-.2,1.2"/>
          <path class="cls-4" d="M36,66.2c.4-.2.8-.6.9-1s0-.9,0-1.4-.2-.5-.4-.8c-.4-.4-1.1-.6-1.6-.2-.5.4-.6,1.2-.4,1.8.2.6.7,1.1,1.2,1.6.2.2.5.4.7.2v-.2"/>
          <path class="cls-4" d="M38.7,57.4c.5,0,.8-.6.6-1.1s-.6-.8-1-1.1c-.2-.2-.5-.3-.8-.3s-.6,0-.7.4v.5c0,.5.3,1,.6,1.4s.7.5,1.1.3"/>
          <path class="cls-4" d="M62.6,57.5c-.6,0-.9.8-.5,1.3s1.2,0,1.3-.4-.3-1.1-.8-.8"/>
          <path class="cls-4" d="M37.4,46.6c-.4-.3-.5-.4-.9-.2s-.8.7-1,1.1v.5c.2.3.6.2.9,0,.3,0,.5-.3.8-.4.2,0,.3-.2.4-.4s0-.4-.2-.4c0,0,.3-.2,0-.3"/>
          <path class="cls-4" d="M61.5,47.7c-.4.3-.2,1,.2,1.3s.9.3,1.4.3.6,0,.8-.2c.2-.2.4-.4.3-.7,0-.2-.2-.3-.3-.4-.4-.3-.8-.6-1.3-.7s-.8,0-1.1.4"/>
          <path class="cls-4" d="M60.8,56c-.4-.3-.5-.4-.9-.2s-.8.7-1,1.1v.5c.2.3.6.2.9,0,.3,0,.5-.3.8-.4.2,0,.3-.2.4-.4s0-.4-.2-.4c0,0,.3-.2,0-.3"/>
          <path class="cls-5" d="M97.3,42.1s-.7-3.6,2.5-6.6c-3.5.8-5.5,5.8-5.5,5.8,0,0,2.5-4-.4-5.4.7,2.3,0,4.1-1.2,4.3-.8-1.8-2.6-3-2.6-3l1.2,3.4s-2.7-1.4-2.1-6.3c-2.9,1.2-.7,6.3-.7,6.3,0,0-1.2-.6-2.5-3.9-1.3,2.3,1.2,5.3,1.2,5.3h10.2,0Z"/>
          <path class="cls-5" d="M1.4,42.1s.4-3.1-1.7-5.7c2.4.7,3.7,5,3.7,5,0,0-1.7-3.4.3-4.7-.4,2,0,3.5.8,3.8.5-1.6,1.8-2.6,1.8-2.6l-.8,2.9s1.9-1.3,1.4-5.4c2,1,.4,5.4.4,5.4,0,0,.8-.5,1.7-3.3.9,2-.8,4.6-.8,4.6H1.2h.2Z"/>
          <path class="cls-5" d="M15,42s.6-3.6-2.3-6.6c3.3.8,5.2,5.8,5.2,5.8,0,0-2.3-4,.4-5.4-.6,2.3,0,4.1,1.1,4.4.7-1.8,2.5-3,2.5-3l-1.1,3.4s2.6-1.5,2-6.3c2.7,1.2.6,6.3.6,6.3,0,0,1.1-.6,2.3-3.9,1.2,2.3-1.1,5.3-1.1,5.3h-9.6.1-.1Z"/>
          <line class="cls-1" x1="30.8" y1="42.7" x2="30.8" y2="95.8"/>
          <line class="cls-1" x1="66.5" y1="42.7" x2="66.5" y2="95.8"/>
        </g>
      </g>
    </g>
  </g>
</svg>