<?xml version="1.0" encoding="UTF-8"?>
<svg xmlns="http://www.w3.org/2000/svg" xmlns:xlink="http://www.w3.org/1999/xlink" version="1.1" viewBox="0 0 96 96">
  <defs>
    <style>
      .cls-1 {
        fill: none;
        stroke: #706f6f;
        stroke-miterlimit: 10;
      }

      .cls-2 {
        fill: #ffe5c5;
      }

      .cls-3 {
        fill: url(#linear-gradient-2);
      }

      .cls-4 {
        fill: url(#linear-gradient);
      }

      .cls-5 {
        fill: #406ca0;
      }

      .cls-6 {
        fill: #ff1010;
      }

      .cls-7 {
        fill: #fff;
      }

      .cls-8 {
        fill: #706f6f;
      }

      .cls-9 {
        fill: #878787;
      }

      .cls-10 {
        fill: #96b58a;
      }

      .cls-11 {
        fill: #f59d45;
      }

      .cls-12 {
        fill: #a0a0a0;
        isolation: isolate;
        opacity: .6;
      }
    </style>
    <linearGradient id="linear-gradient" x1="25" y1="18.1" x2="38.1" y2="-30.3" gradientTransform="translate(38.6 7.1) rotate(34.6)" gradientUnits="userSpaceOnUse">
      <stop offset="0" stop-color="#cd8e65"/>
      <stop offset=".4" stop-color="#d9a376"/>
      <stop offset="1" stop-color="#f3d09c"/>
    </linearGradient>
    <linearGradient id="linear-gradient-2" x1="17.1" y1="-34.9" x2="36" y2="21.8" gradientTransform="translate(38.6 7.1) rotate(34.6)" gradientUnits="userSpaceOnUse">
      <stop offset="0" stop-color="#deac78"/>
      <stop offset="1" stop-color="#b87b58"/>
    </linearGradient>
  </defs>
  <!-- Generator: Adobe Illustrator 28.7.0, SVG Export Plug-In . SVG Version: 1.2.0 Build 136)  -->
  <g>
    <g id="Ebene_1">
      <g id="Ebene_1-2" data-name="Ebene_1">
        <g id="Ebene_1-2">
          <g id="Ebene_1-2-2" data-name="Ebene_1-2">
            <g id="Ebene_1-2-2">
              <rect class="cls-8" x="40.7" width="16.4" height="41.4"/>
              <rect class="cls-12" y="42.3" width="29.6" height="53.5"/>
              <rect class="cls-12" x="67.6" y="42.3" width="28.4" height="53.5"/>
              <rect class="cls-11" x="32.5" y="54.9" width="32.4" height="40.9"/>
              <rect class="cls-8" x="40.7" y="41.3" width="16.4" height="42.3"/>
              <path class="cls-10" d="M69.3,42.1s.5-3.1-1.7-5.7c2.5.7,3.9,5,3.9,5,0,0-1.7-3.4.3-4.7-.5,2,0,3.5.8,3.8.6-1.6,1.8-2.6,1.8-2.6l-.8,2.9s1.9-1.3,1.5-5.4c2,1,.5,5.4.5,5.4,0,0,.8-.5,1.7-3.3.9,2-.8,4.6-.8,4.6h-7.2Z"/>
              <path class="cls-9" d="M38.4,72.1c-.6,0-.9.8-.5,1.3s1.2,0,1.3-.4-.3-1.1-.8-.8"/>
              <path class="cls-9" d="M58.6,63.7c-.3.4-.3.9,0,1.4s.5.8.9,1c.2.2.5.3.8.4.6,0,1.3-.2,1.4-.8.2-.6-.2-1.3-.7-1.7s-1.2-.5-1.9-.6c-.3,0-.6,0-.7.3h.2"/>
              <path class="cls-9" d="M37.9,79.5c0-.5,0-.6-.3-.9s-1-.3-1.5-.2c-.2,0-.3,0-.4.3-.2.3,0,.6.4.8.2.2.5.3.8.4h.5c.2,0,.3-.2.3-.4,0,.2.3,0,.3,0"/>
              <path class="cls-9" d="M61.7,72.3c-.4.3-.2,1,.2,1.3s.9.3,1.4.3.6,0,.8-.2.4-.4.3-.7c0-.2-.2-.3-.3-.4-.4-.3-.8-.6-1.3-.7s-.8,0-1.1.4"/>
              <path class="cls-9" d="M44.3,94.3c-.6,0-.9.8-.5,1.3s1.2,0,1.3-.4-.3-1.1-.8-.8"/>
              <path class="cls-9" d="M32.9,85.9c-.3.4-.3.9,0,1.4s.5.8.9,1c.2.2.5.3.8.4.6,0,1.3-.2,1.4-.8.2-.6-.2-1.3-.7-1.7s-1.2-.5-1.9-.6c-.3,0-.6,0-.7.3h.2"/>
              <path class="cls-9" d="M49.2,86.8c0-.5,0-.6-.3-.9s-1-.3-1.5-.2c-.2,0-.3,0-.4.3-.2.3,0,.6.4.8.2.2.5.3.8.4h.5c.2,0,.3-.2.3-.4,0,.2.3,0,.3,0"/>
              <path class="cls-9" d="M38.4,94.2c-.4.3-.2,1,.2,1.3s.9.3,1.4.3.6,0,.8-.2.4-.4.3-.7c0-.2-.2-.3-.3-.4-.4-.3-.8-.6-1.3-.7s-.8,0-1.1.4"/>
              <path class="cls-9" d="M62.8,84.9c-.3.5.3,1.2.8,1.1s.8-.9.3-1.3-1.1-.3-1.1.3"/>
              <path class="cls-9" d="M51.5,91.4c.2.4.6.7,1.1.8s.9,0,1.4-.2c.3,0,.5-.3.7-.5.4-.5.5-1.2,0-1.7-.4-.5-1.2-.6-1.8-.3s-1.1.8-1.5,1.3c-.2.2-.4.5-.2.7h.2"/>
              <path class="cls-9" d="M61,80.5c-.4-.3-.5-.4-.9-.2s-.8.7-1,1.1v.5c.2.3.6.2.9,0,.3,0,.5-.3.8-.4.2,0,.3-.2.4-.4s0-.4-.2-.4c0,0,.3-.2,0-.3"/>
              <path class="cls-9" d="M60.3,95.2c0,.5.7.7,1.2.5s.8-.6,1-1,.3-.5.3-.8-.2-.6-.4-.6h-.5c-.5.2-.9.3-1.3.7s-.4.7-.2,1.2"/>
              <path class="cls-9" d="M36,66.2c.4-.2.8-.6.9-1s0-.9,0-1.4-.2-.5-.4-.8c-.4-.4-1.1-.6-1.6-.2-.5.4-.6,1.2-.4,1.8.2.6.7,1.1,1.2,1.6.2.2.5.4.7.2v-.2"/>
              <path class="cls-9" d="M60.9,54.2c.5,0,.8-.6.6-1.1s-.6-.8-1-1.1c-.2-.2-.5-.3-.8-.3s-.6,0-.7.4v.5c0,.5.3,1,.6,1.4s.7.5,1.1.3"/>
              <path class="cls-9" d="M57.8,50.9c-.6,0-.9.8-.5,1.3s1.2,0,1.3-.4-.3-1.1-.8-.8"/>
              <path class="cls-9" d="M57.9,47.7c-.4-.3-.5-.4-.9-.2s-.8.7-1,1.1v.5c.2.3.6.2.9,0,.3,0,.5-.3.8-.4.2,0,.3-.2.4-.4s0-.4-.2-.4c0,0,.3-.2,0-.3"/>
              <path class="cls-9" d="M58.4,45.8c-.4.3-.2,1,.2,1.3s.9.3,1.4.3.6,0,.8-.2.4-.4.3-.7c0-.2-.2-.3-.3-.4-.4-.3-.8-.6-1.3-.7s-.8,0-1.1.4"/>
              <path class="cls-9" d="M59.8,48.7c-.4-.3-.5-.4-.9-.2s-.8.7-1,1.1v.5c.2.3.6.2.9,0,.3,0,.5-.3.8-.4.2,0,.3-.2.4-.4s0-.4-.2-.4c0,0,.3-.2,0-.3"/>
              <path class="cls-10" d="M97.3,42.1s-.7-3.6,2.5-6.6c-3.5.8-5.5,5.8-5.5,5.8,0,0,2.5-4-.4-5.4.7,2.3,0,4.1-1.2,4.3-.8-1.8-2.6-3-2.6-3l1.2,3.4s-2.7-1.4-2.1-6.3c-2.9,1.2-.7,6.3-.7,6.3,0,0-1.2-.6-2.5-3.9-1.3,2.3,1.2,5.3,1.2,5.3h10.2,0Z"/>
              <path class="cls-10" d="M1.4,42.1s.4-3.1-1.7-5.7c2.4.7,3.7,5,3.7,5,0,0-1.7-3.4.3-4.7-.4,2,0,3.5.8,3.8.5-1.6,1.8-2.6,1.8-2.6l-.8,2.9s1.9-1.3,1.4-5.4c2,1,.4,5.4.4,5.4,0,0,.8-.5,1.7-3.3.9,2-.8,4.6-.8,4.6H1.2s.2,0,.2,0Z"/>
              <path class="cls-10" d="M15,42s.6-3.6-2.3-6.6c3.3.8,5.2,5.8,5.2,5.8,0,0-2.3-4,.4-5.4-.6,2.3,0,4.1,1.1,4.4.7-1.8,2.5-3,2.5-3l-1.1,3.4s2.6-1.5,2-6.3c2.7,1.2.6,6.3.6,6.3,0,0,1.1-.6,2.3-3.9,1.2,2.3-1.1,5.3-1.1,5.3h-9.6.1s-.1,0,0,0h0Z"/>
              <line class="cls-1" x1="30.8" y1="42.7" x2="30.8" y2="95.8"/>
              <line class="cls-1" x1="66.5" y1="42.7" x2="66.5" y2="95.8"/>
            </g>
          </g>
        </g>
        <circle class="cls-6" cx="81.7" cy="21.7" r="9.2"/>
        <g>
          <path class="cls-7" d="M75.7,20.2c0,.3,0,.5-.5.6s-.6-.1-.6-.4,0-.5.5-.6.6.1.6.4ZM75.7,26l-.8-4.4.9-.2.8,4.4-.9.2Z"/>
          <path class="cls-7" d="M77,22.4c0-.5-.2-.8-.3-1.2h.8c0-.1.2.6.2.6h0c.2-.5.7-1,1.5-1.1s1.8,0,2.1,1.6l.5,2.6-.9.2-.5-2.5c0-.7-.5-1.2-1.4-1.1s-1,.6-1.1,1v.4l.5,2.6-.9.2-.6-3.2h.1Z"/>
          <path class="cls-7" d="M83.2,22.1h0c0-.2.2-.4.3-.6l1.2-1.8,1.1-.2-1.6,2.2,2.7,2.2-1.1.2-2.1-1.8-.4.5.3,1.7-.9.2-1.2-6.4.9-.2.7,4.1h0Z"/>
          <path class="cls-7" d="M86.1,17.4l.9-.2,1.2,6.4-.9.2-1.2-6.4Z"/>
          <path class="cls-7" d="M88.7,23.1c0-.3.2-.6.5-.7s.6.1.7.5,0,.6-.5.7-.6-.1-.7-.5Z"/>
        </g>
      </g>
      <g>
        <g>
          <path class="cls-4" d="M50.5,44.4l8.6,5.8s5,1.6,10.3-1.5c0,0,2.3-9.7-2-18.8,0,0,.9-2.8,2.9-5.7,0,0,.2-1.7-.9-2.8,0,0,14.7-14.7,16.9-27.3,0,0,.8-.3,1.1-1.2,0,0-7.8-6.1-14.2-6.9,0,0-5.3,3.7-8.2,7.7l-14.1,19.8s-7.9,16.5-.5,31Z"/>
          <path class="cls-3" d="M51,13.4s-7.9,16.5-.5,31l8.6,5.8s5,1.6,10.3-1.5c-14.3-3.2-16.6-8.1-16.6-8.1l1.2-.8c-3.9-8.8-.2-25.3-.2-25.3,2-6.2,12.8-18,12.8-18l.2-1.5c1.5-3.7,6.4-9,6.4-9,0,0-5.3,3.7-8.2,7.7l-14.1,19.8Z"/>
          <path class="cls-2" d="M73.3-14.1s10.1,5.5,14.2,6.9c0,0-7.8-6.1-14.2-6.9Z"/>
          <path class="cls-2" d="M83.1-6.2s0,7.5-13.6,27.6c0,0,14.7-14.7,16.9-27.3,0,0-5-2.5-7-3.8l3.8,3.6Z"/>
          <path class="cls-2" d="M67.4,29.9s.9-2.8,2.9-5.7c-5.4,6.5-8.1,7.8-8.1,7.8l4.3-1.3c-.6,1.4-1.6,2.9-1.6,2.9l1.6-.9c2.8,6.4,3,16,3,16,0,0,2.3-9.7-2-18.8Z"/>
          <path class="cls-2" d="M70.4,24.2s.2-1.7-.9-2.8c0,0-2.8,2.6-6,3.2,0,0,3,.6,6.9-.3Z"/>
          <path class="cls-2" d="M82.3-5.9s-2.4-2.5-6-4c0,0,3.2,3.5,6,4Z"/>
          <g>
            <path class="cls-5" d="M58.1,35.9c.3.2.4.4.5.7,0,.2,0,.4,0,.6,0,.2-.2.3-.4.5-.2.1-.5.2-.8.2-.2,0-.5,0-.7,0-.2,0-.5-.1-.6-.2l.2-.6c.1,0,.3.1.5.2.2,0,.4,0,.6,0,.2,0,.4,0,.5-.2.1,0,.2-.2.1-.3,0-.1,0-.3-.2-.3-.1,0-.4,0-.7,0h-.9c0,.1,0-1.8,0-1.8l2.2-.3v.6c0,0-1.4.2-1.4.2v.7s.3,0,.3,0c.5,0,.9,0,1.1.2Z"/>
            <path class="cls-5" d="M59.8,37.4c-.2-.1-.5-.3-.6-.5-.2-.3-.3-.6-.3-.9,0-.4,0-.7,0-1,0-.3.2-.5.5-.7.2-.2.5-.3.8-.3.3,0,.6,0,.8.1.2.1.5.3.6.5.2.3.3.6.3.9,0,.4,0,.7,0,1,0,.3-.2.5-.5.7-.2.2-.5.3-.8.3-.3,0-.6,0-.8-.1ZM61,36.5c0-.2.1-.5,0-.9,0-.4-.1-.6-.3-.8-.1-.2-.3-.2-.5-.2-.2,0-.4.1-.5.3,0,.2-.1.5,0,.9,0,.4.1.6.3.8.1.2.3.2.5.2.2,0,.4-.1.5-.3Z"/>
          </g>
          <g>
            <path class="cls-5" d="M57.5,40l-.6.8v.8c.1,0-.1,0-.1,0l-.4-3.1h.2s.3,2,.3,2l1.8-2.2h.3s-1.2,1.5-1.2,1.5l1.7,1.5h-.3s-1.6-1.3-1.6-1.3Z"/>
            <path class="cls-5" d="M61.9,39.5h.2s.2,1.1.2,1.1c-.1.1-.3.3-.5.4-.2,0-.4.2-.6.2-.3,0-.6,0-.9-.1-.3-.1-.5-.3-.7-.5s-.3-.5-.3-.8c0-.3,0-.6.1-.8s.3-.5.5-.6c.2-.2.5-.3.8-.3.2,0,.5,0,.7,0,.2,0,.4.1.5.3v.2c-.3-.1-.4-.2-.6-.2-.2,0-.4,0-.6,0-.3,0-.5.1-.7.3-.2.1-.4.3-.5.6,0,.2-.1.5,0,.7,0,.3.1.5.3.7.2.2.3.3.6.4.2,0,.5.1.8,0,.4,0,.7-.2.9-.4v-1.1Z"/>
          </g>
        </g>
        <g>
          <path class="cls-5" d="M55.9,28.6l.6-2.7c.1-.5.3-.8.6-1,.3-.2.6-.3,1.1-.3s.6.2.8.3.2.3.3.6c.2-.3.4-.5.7-.7s.6-.2,1-.2c.4,0,.5.1.7.3s.3.3.4.6c0,.1.1.3,0,.6,0,.3,0,.6,0,.7l-.5,2.5-5.6-.5h0ZM58.4,27.3v-.6c.2-.2.2-.4,0-.5s-.1-.2-.3-.2-.3,0-.4,0c-.1,0-.2.2-.2.4v.6c-.1,0,.9,0,.9,0h0ZM60.6,27.5v-.7c.2-.2.2-.4,0-.5s-.1-.2-.4-.2-.3,0-.5.1-.3.3-.3.5v.7c-.1,0,1,.1,1,.1Z"/>
          <path class="cls-5" d="M57.1,21.4l2-3.6,1.1.4-1.3,2.2.8.3,1.2-2.1,1.1.4-1.2,2.1,1,.4,1.3-2.3,1.2.5-2.1,3.7-5-2.1h0Z"/>
          <path class="cls-5" d="M59.6,15.7l2.8-3.9,1.2.6-.9,1.3,3.5,2-1,1.3-3.5-2-.9,1.3s-1.2-.6-1.2-.6Z"/>
          <path class="cls-5" d="M65.3,12.5c-.7-.5-1.2-1-1.4-1.5s0-1.2.5-1.9,1.1-1.1,1.8-1.2,1.4,0,2.1.4,1,.6,1.2,1,.3.7.3,1.2-.2.9-.5,1.3-.7.8-1.1,1.1-.8.3-1.3.3c-.6,0-1-.2-1.6-.5h0ZM66.3,11.2c.5.2.9.4,1.2.3s.6-.2.7-.5.3-.5.2-.9c-.1-.2-.4-.6-.9-.8s-.8-.3-1.2-.3c-.3,0-.6.2-.7.5s-.2.5,0,.8c.2.3.4.5.9.8h-.1Z"/>
          <path class="cls-5" d="M66.1,5.9l.6-1.3,3.6-.8-2.9-.8.6-1.3,5.3,1.6-.6,1.3-3.6.8,2.9.9-.6,1.3-5.3-1.6h0Z"/>
        </g>
      </g>
    </g>
  </g>
</svg>