<?xml version="1.0" encoding="UTF-8"?>
<svg xmlns="http://www.w3.org/2000/svg" version="1.1" viewBox="0 0 96 96">
  <defs>
    <style>
      .cls-1 {
        fill: #706f6f;
      }

      .cls-2 {
        fill: #96b58a;
      }

      .cls-3 {
        stroke: #706f6f;
      }

      .cls-3, .cls-4 {
        fill: none;
        stroke-miterlimit: 10;
        stroke-width: 2px;
      }

      .cls-4 {
        stroke: #f59d45;
      }

      .cls-5 {
        fill: #f59d45;
      }

      .cls-6 {
        fill: #a0a0a0;
        isolation: isolate;
        opacity: .6;
      }
    </style>
  </defs>
  <!-- Generator: Adobe Illustrator 28.6.0, SVG Export Plug-In . SVG Version: 1.2.0 Build 709)  -->
  <g>
    <g id="Ebene_1">
      <g id="Ebene_1-2">
        <rect class="cls-1" x="40.3" y="0" width="16.7" height="37.5"/>
        <rect class="cls-6" x="-.5" y="41.6" width="97.2" height="54.4"/>
        <polyline class="cls-1" points="41.3 41.8 58 41.8 54.4 64.3 49.6 92.1"/>
        <polyline class="cls-5" points="39.7 39.9 56.4 39.9 52.9 62.4 48 90.2"/>
        <line class="cls-3" x1="32.1" y1="37.7" x2="65.1" y2="37.7"/>
        <line class="cls-4" x1="32.1" y1="39.9" x2="65.1" y2="39.9"/>
        <path class="cls-2" d="M68.5,40.8s.5-3.1-1.7-5.7c2.5.7,3.9,5,3.9,5,0,0-1.7-3.4.3-4.7-.5,2,0,3.5.8,3.8.6-1.6,1.8-2.6,1.8-2.6l-.8,2.9s1.9-1.3,1.5-5.4c2,1,.5,5.4.5,5.4,0,0,.8-.5,1.7-3.3.9,2-.8,4.6-.8,4.6h-7.2Z"/>
        <path class="cls-2" d="M91.1,40.8s-.7-3.6,2.5-6.6c-3.5.8-5.5,5.8-5.5,5.8,0,0,2.5-4-.4-5.4.7,2.3,0,4.1-1.2,4.3-.8-1.8-2.6-3-2.6-3l1.2,3.4s-2.7-1.4-2.1-6.3c-2.9,1.2-.7,6.3-.7,6.3,0,0-1.2-.6-2.5-3.9-1.3,2.3,1.2,5.3,1.2,5.3h10.2,0Z"/>
        <path class="cls-2" d="M5.3,40.8s.4-3.1-1.7-5.7c2.4.7,3.7,5,3.7,5,0,0-1.7-3.4.3-4.7-.4,2,0,3.5.8,3.8.5-1.6,1.8-2.6,1.8-2.6l-.8,2.9s1.9-1.3,1.4-5.4c2,1,.4,5.4.4,5.4,0,0,.8-.5,1.7-3.3.9,2-.8,4.6-.8,4.6h-7,.2Z"/>
        <path class="cls-2" d="M18.5,40.8s.6-3.6-2.3-6.6c3.3.8,5.2,5.8,5.2,5.8,0,0-2.3-4,.4-5.4-.6,2.3,0,4.1,1.1,4.4.7-1.8,2.5-3,2.5-3l-1.1,3.4s2.6-1.5,2-6.3c2.7,1.2.6,6.3.6,6.3,0,0,1.1-.6,2.3-3.9,1.2,2.3-1.1,5.3-1.1,5.3h-9.6.1-.1Z"/>
      </g>
    </g>
  </g>
</svg>