<?xml version="1.0" encoding="UTF-8"?>
<svg id="Ebene_1" data-name="Ebene 1" xmlns="http://www.w3.org/2000/svg" viewBox="0 0 96 96">
  <defs>
    <style>
      .cls-1 {
        fill: #393938;
      }

      .cls-1, .cls-2, .cls-3, .cls-4 {
        stroke-width: 0px;
      }

      .cls-2 {
        fill: #bebebe;
      }

      .cls-3 {
        fill: #d8d8d8;
      }

      .cls-4 {
        fill: #acacac;
      }
    </style>
  </defs>
  <rect class="cls-4" x="32.31" y="12.64" width="31.37" height="83.36"/>
  <polygon class="cls-4" points="65.67 12.64 30.32 12.64 30.32 9.27 48 5.79 65.67 9.27 65.67 12.64"/>
  <rect class="cls-3" x="55.51" y="16.81" width="40.49" height="3.21"/>
  <rect class="cls-3" x="55.51" y="64.39" width="40.49" height="3.21"/>
  <rect class="cls-3" x="72.17" y="16.81" width="3.21" height="79.19"/>
  <rect class="cls-3" x="89.37" y="16.81" width="3.21" height="79.19"/>
  <rect class="cls-3" x=".02" y="16.81" width="40.33" height="3.21" rx="0" ry="0"/>
  <rect class="cls-3" x=".02" y="64.39" width="40.33" height="3.21" rx="0" ry="0"/>
  <rect class="cls-3" x="20.47" y="16.81" width="3.21" height="79.19"/>
  <rect class="cls-3" x="3.27" y="16.81" width="3.21" height="79.19"/>
  <rect class="cls-1" x="34.54" y="12.64" width="26.77" height="83.36"/>
  <circle class="cls-2" cx="47.92" cy="25.28" r="2.04"/>
  <circle class="cls-2" cx="48" cy="72.64" r="2.04"/>
</svg>