<?xml version="1.0" encoding="UTF-8"?>
<svg id="Ebene_1" data-name="Ebene 1" xmlns="http://www.w3.org/2000/svg" viewBox="0 0 96 96">
  <defs>
    <style>
      .cls-1 {
        fill: #393938;
      }

      .cls-1, .cls-2, .cls-3, .cls-4 {
        stroke-width: 0px;
      }

      .cls-2 {
        fill: #bebebe;
      }

      .cls-3 {
        fill: #d8d8d8;
      }

      .cls-4 {
        fill: #acacac;
      }
    </style>
  </defs>
  <rect class="cls-4" x="32.3" y="12.62" width="31.38" height="83.38"/>
  <polygon class="cls-4" points="65.67 12.62 30.31 12.62 30.31 9.25 47.99 5.77 65.67 9.25 65.67 12.62"/>
  <rect class="cls-3" x="55.5" y="16.8" width="40.5" height="3.21"/>
  <rect class="cls-3" x="55.5" y="64.39" width="40.5" height="3.21"/>
  <rect class="cls-3" x="55.5" y="16.8" width="3.21" height="79.2"/>
  <rect class="cls-3" x="72.17" y="16.8" width="3.21" height="79.2"/>
  <rect class="cls-3" x="89.37" y="16.8" width="3.21" height="79.2"/>
  <rect class="cls-3" x="0" y="16.8" width="40.33" height="3.21"/>
  <rect class="cls-3" x="0" y="64.39" width="40.33" height="3.21"/>
  <rect class="cls-3" x="37.12" y="16.8" width="3.21" height="79.2"/>
  <rect class="cls-3" x="20.45" y="16.8" width="3.21" height="79.2"/>
  <rect class="cls-3" x="3.25" y="16.8" width="3.21" height="79.2"/>
  <rect class="cls-1" x="34.52" y="23.06" width="26.78" height="17.51"/>
  <circle class="cls-2" cx="47.91" cy="31.53" r="2.04"/>
  <rect class="cls-1" x="34.61" y="70.59" width="26.78" height="17.51"/>
  <circle class="cls-2" cx="47.99" cy="79.34" r="2.04"/>
</svg>