<?xml version="1.0" encoding="UTF-8"?>
<svg xmlns="http://www.w3.org/2000/svg" version="1.1" viewBox="0 0 96 96">
  <defs>
    <style>
      .cls-1 {
        fill: #706f6f;
      }

      .cls-2 {
        fill: #f59d45;
      }

      .cls-3 {
        fill: #a0a0a0;
        isolation: isolate;
        opacity: .6;
      }

      .cls-4 {
        fill: none;
        stroke: #706f6f;
        stroke-miterlimit: 10;
        stroke-width: 4px;
      }
    </style>
  </defs>
  <!-- Generator: Adobe Illustrator 28.6.0, SVG Export Plug-In . SVG Version: 1.2.0 Build 709)  -->
  <g>
    <g id="Ebene_1">
      <g id="Ebene_1-2" data-name="Ebene_1">
        <rect class="cls-1" x="47.1" y="-39.3" width="16.8" height="77.1"/>
        <rect class="cls-3" x="33.3" y="40.6" width="39.8" height="55.4"/>
        <path class="cls-1" d="M78.6,78.3h-4.6v-42.8s4.6,0,4.6,6.2v36.6h0Z"/>
        <line class="cls-4" x1="40" y1="37.6" x2="74.1" y2="37.6"/>
        <g>
          <path class="cls-2" d="M80.1,54.5s0,.3,0-1.3c2.9,2.7,0,5,0,5v-1.4h-12.3v-2.4h12.3Z"/>
          <path class="cls-2" d="M80.1,71.3s0,.3,0-1.3c2.9,2.7,0,5,0,5v-1.4h-12.3v-2.4h12.3Z"/>
        </g>
        <path class="cls-2" d="M54.2,34.2s.3,0-1.3,0c2.7-2.3,5,0,5,0h-1.4v13.3h-2.4v-13.3h.1Z"/>
      </g>
    </g>
  </g>
</svg>